<?xml version="1.0" standalone="no"?>
<!DOCTYPE svg PUBLIC "-//W3C//DTD SVG 20010904//EN"
 "http://www.w3.org/TR/2001/REC-SVG-20010904/DTD/svg10.dtd">
<svg version="1.0" xmlns="http://www.w3.org/2000/svg"
 width="260.000000pt" height="260.000000pt" viewBox="0 0 260.000000 260.000000"
 preserveAspectRatio="xMidYMid meet">
<metadata>
Created by potrace 1.11, written by Peter Selinger 2001-2013
</metadata>
<g transform="translate(0.000000,260.000000) scale(0.100000,-0.100000)"
fill="#000000" stroke="none">
<path d="M0 1300 l0 -1300 1300 0 1300 0 0 1300 0 1300 -1300 0 -1300 0 0
-1300z m2135 580 c14 -85 29 -163 31 -172 12 -40 -28 -15 -80 51 -85 106 -129
131 -252 138 -102 7 -138 -8 -155 -68 -12 -38 -11 -42 13 -65 16 -17 74 -42
173 -75 82 -27 176 -64 209 -82 220 -117 292 -346 179 -571 -46 -91 -154 -201
-238 -242 -56 -27 -67 -29 -180 -29 -103 1 -130 4 -191 26 -147 53 -230 134
-242 235 -14 124 116 249 295 284 83 17 156 6 240 -34 163 -78 185 -195 53
-273 -46 -28 -64 -33 -117 -33 -132 0 -215 81 -153 148 26 27 60 28 91 3 l24
-19 -28 -22 c-34 -27 -35 -57 -2 -72 34 -15 72 12 102 73 19 37 21 50 13 80
-21 76 -115 125 -208 107 -104 -19 -162 -86 -170 -196 -4 -60 -1 -75 19 -112
29 -51 119 -113 190 -130 68 -17 184 -7 243 19 61 26 159 121 188 179 48 100
14 247 -73 310 -27 21 -89 43 -207 77 -180 51 -238 78 -275 128 -49 65 -62
171 -31 260 34 100 148 187 244 187 25 0 76 -9 115 -20 l69 -20 41 44 c22 24
41 43 42 43 1 -1 13 -72 28 -157z m-969 109 c8 -14 -223 -248 -323 -327 -70
-56 -72 -57 -54 -77 33 -37 82 -115 178 -283 52 -92 114 -191 138 -222 124
-160 332 -297 561 -366 79 -25 105 -28 241 -28 84 -1 153 -4 153 -7 0 -16
-122 -58 -185 -64 -166 -16 -432 32 -576 104 -173 87 -284 213 -456 517 -55
99 -109 179 -144 217 l-55 60 -41 -27 -41 -27 -7 -173 c-9 -218 4 -282 61
-308 14 -7 23 -18 22 -27 -3 -14 -30 -16 -191 -19 l-187 -2 0 26 c0 16 10 34
25 46 48 38 56 68 67 271 10 199 5 493 -11 561 -6 22 -25 54 -45 75 -20 20
-36 47 -36 59 0 22 1 22 184 22 159 0 185 -2 197 -17 12 -14 12 -17 0 -21 -31
-10 -61 -52 -77 -108 -14 -48 -16 -83 -11 -187 3 -71 8 -132 12 -135 10 -10
93 79 173 183 88 116 127 194 119 235 l-6 28 127 7 c69 4 136 11 147 15 28 12
33 12 41 -1z"/>
</g>
</svg>
