<svg version="1" xmlns="http://www.w3.org/2000/svg" width="346.667" height="346.667" viewBox="0 0 260.000000 260.000000"><path d="M0 130v130h260V0H0v130zm211.9-67.8c.5 2.9 1.7 9.3 2.6 14.3.8 4.9 1.8 10.2 2.1 11.7.3 1.7.1 2.8-.5 2.8-.7 0-5.1-4-9.9-8.9-9.9-10.1-12.3-11.2-25.3-11.5-5.4-.1-8.1.3-9.4 1.4-2.4 2-4.6 7.5-3.9 9.5.9 2.2 7.8 5.5 21.9 10.5 15.6 5.5 22.8 9.3 29.1 15.6 17.4 17.2 15.7 43.2-4 62.9-3.9 3.8-9.6 8.3-12.6 10-5.3 2.9-5.9 3-18.5 2.9-12.2 0-13.5-.2-21.2-3.3-13.6-5.4-22.2-14.8-22.3-24.5-.1-14.9 22.2-29.6 41.3-27.2 10.3 1.3 22.6 8.8 25.4 15.4 1.8 4.4.9 8.2-2.9 12.1-4.7 4.8-9.9 7.1-16.1 7.1-6.7 0-11.4-1.5-14.9-4.8-3.4-3.1-3.6-6.7-.6-9.9 2.6-2.8 5.8-2.9 8.9-.4l2.4 1.9-2.8 2.6c-3 2.8-3.1 4.3-.5 5.9 2.8 1.8 6.6-.1 9.3-4.6 4.2-7.3 2.8-13.5-4.2-17.9-3-1.8-5.2-2.3-10.3-2.3-11.9 0-18.9 6.5-20.6 19.1-1.1 9 3.7 16.2 14.9 22 7.7 4 23.2 3.8 31.7-.6 5.7-2.9 15.6-13.3 17.6-18.5 2.1-5.7 1.5-15.4-1.4-21-4.1-8-7.8-10-30.7-17-12.9-4-20-7.2-22.7-10.2-1-1-2.7-4.1-3.9-6.7-1.8-4.1-2.1-6.3-1.7-12.6.5-8.9 3.2-14.5 9.4-20 8.2-7.1 15.6-8.5 27.9-5l7 1.9 3.3-3.9c1.9-2.2 3.7-4 4.2-4s1.3 2.4 1.9 5.2zM116.5 61c.7 1.1-24.2 26.5-33.4 34.1l-5.3 4.4 5.4 8c3 4.4 9 14.1 13.3 21.5 4.3 7.4 9.6 16.2 11.8 19.5 10.8 15.9 30.5 29.9 54.2 38.5 8.3 3 10.2 3.3 25.7 3.9 9.2.4 17 1 17.4 1.4.9.9-4.9 3.3-12.9 5.4-15.8 4-50.3-2.1-67.2-12-14.2-8.3-23.4-19.2-40.8-48.2-5.9-9.9-12.9-20.4-15.5-23.4l-4.8-5.4-4.2 2.8-4.2 2.8-.2 12.1c-.6 26.5 0 30.6 5 35.2 2 1.8 3.3 3.7 2.8 4.1-.4.4-9.1 1-19.2 1.1l-18.4.4V165c0-1.2 1.3-3.7 2.9-5.6 4.9-5.5 5.3-8.5 5.8-43 .6-36.5.1-40.5-5.3-47.3-5.8-7.4-5.5-7.6 14.6-7.9 14-.2 18 0 19.5 1.2 1.9 1.4 1.9 1.5-.8 3.6-6.1 4.8-8.1 13-7.1 29.2.5 8.4 1 11.8 1.9 11.8 1.4 0 9.8-9.3 17.4-19.3 6.7-8.9 10.4-16.3 10.4-20.9v-3.6l9.6-.7c5.3-.3 11.6-1 14.1-1.4 6.4-1.2 6.8-1.2 7.5-.1z"/></svg>