<svg version="1" xmlns="http://www.w3.org/2000/svg" width="266.667" height="266.667" viewBox="0 0 200.000000 200.000000"><path d="M0 100v100h200V0H0v100zm164.8-43.1c1.2 6.9 2 12.7 1.8 12.9-.8.7-4.1-2.1-7.6-6.3-4.9-6-9.4-8.3-17.8-9.1-6.6-.6-7.2-.5-9.6 1.9-3 3-3.3 5.7-.8 8 .9.8 6.7 3.3 12.7 5.5 13.7 4.9 18.5 7.3 23.6 11.9 10.8 9.7 13.3 24.1 6.6 38.1-2.8 6.1-11.5 15.2-17.7 18.6-4.9 2.6-5.6 2.8-16.4 2.4-10.6-.3-11.7-.5-18.2-3.8-4.6-2.4-7.9-4.9-10.2-8-3.1-4-3.4-4.9-3-10 .3-3.8 1.1-6.5 2.8-8.8 5.4-7.2 19-12.9 28-11.6 9.5 1.4 21 9.2 21 14.4 0 3.5-2.2 6.9-6.4 9.7-8 5.3-21.7 2.6-22.4-4.4-.5-5.3 4-8 8.2-4.8 1.9 1.5 1.9 1.5-.3 3.9-2.6 2.8-2.1 4.6 1.4 4.6 3.4 0 8-6.9 7.1-10.6-1.6-6.3-9.8-10.3-17.1-8.3-7.3 2-11.5 7.9-11.5 16.2 0 5.8 3.1 10.2 9.9 14 4.6 2.6 6.3 3 12.5 3 8.9-.1 13.7-2 20-8.1 5.7-5.5 7.6-9.5 7.6-15.6 0-5.8-1.4-9.3-5.3-13.4-2.6-2.7-5.8-4.1-17.4-7.8-16.2-5.2-20-7.3-22.8-12.9-2.4-4.9-2.6-14.6-.2-19.1 1.9-3.7 8.8-10.1 12.3-11.4 3.5-1.4 9.1-1.2 15.2.4l5.2 1.3 2.8-3.2c1.5-1.8 3-2.9 3.3-2.6.3.3 1.5 6.2 2.7 13zM90 46.9c0 1.6-15.5 17.5-23 23.6-6.7 5.5-7 5.9-5.6 7.9.9 1.1 5.4 8.6 10.2 16.6 12.4 20.7 13.1 21.8 20.5 29 7.7 7.6 19.5 14.9 31.2 19.2 7.2 2.8 9.7 3.2 21.5 3.6 7.2.2 13.2.8 13.2 1.2 0 .5-2.1 1.7-4.7 2.7-6.9 2.6-25.7 2.4-37.4-.5-23.2-5.7-32.9-14.1-50.4-43.7-4.6-7.7-10.1-16-12.2-18.4l-3.9-4.4-3.3 2.4-3.2 2.4.3 16.3.3 16.4 2.7 2.3c1.6 1.3 2.8 2.8 2.8 3.3 0 .9-13.9 2.2-23.7 2.2-4.8 0-5.3-.2-5.3-2.2 0-1.2 1.1-3.4 2.5-4.8 3.4-3.6 4.4-12.2 4.5-38 0-21.9-.6-26.2-4.5-30.9-4.9-5.7-4.1-6.1 11.9-6.1 14.3 0 18.3.9 14.1 3.2-3.7 2.1-5.5 8.6-5.5 20.5 0 7.3.4 11.3 1.1 11.3 2.3 0 15.3-15.9 19.1-23.5 1.2-2.2 2.2-5.3 2.3-7l.2-3 9.8-.7c5.3-.4 10.2-.9 10.9-1.2 1.9-.8 3.6-.6 3.6.3z"/></svg>