<svg width="260" height="260" xmlns="http://www.w3.org/2000/svg" preserveAspectRatio="xMidYMid meet">
 <metadata>Created by potrace 1.11, written by Peter Selinger 2001-2013</metadata>

 <g>
  <title>background</title>
  <rect fill="none" id="canvas_background" height="402" width="582" y="-1" x="-1"/>
 </g>
 <g>
  <title>Layer 1</title>
  <g id="svg_1" fill="#18ae90" transform="translate(0,260) scale(0.10000000149011612,-0.10000000149011612) ">
   <path stroke="null" id="svg_2" d="m0,1300l0,-1300l1300,0l1300,0l0,1300l0,1300l-1300,0l-1300,0l0,-1300zm2135,580c14,-85 29,-163 31,-172c12,-40 -28,-15 -80,51c-85,106 -129,131 -252,138c-102,7 -138,-8 -155,-68c-12,-38 -11,-42 13,-65c16,-17 74,-42 173,-75c82,-27 176,-64 209,-82c220,-117 292,-346 179,-571c-46,-91 -154,-201 -238,-242c-56,-27 -67,-29 -180,-29c-103,1 -130,4 -191,26c-147,53 -230,134 -242,235c-14,124 116,249 295,284c83,17 156,6 240,-34c163,-78 185,-195 53,-273c-46,-28 -64,-33 -117,-33c-132,0 -215,81 -153,148c26,27 60,28 91,3l24,-19l-28,-22c-34,-27 -35,-57 -2,-72c34,-15 72,12 102,73c19,37 21,50 13,80c-21,76 -115,125 -208,107c-104,-19 -162,-86 -170,-196c-4,-60 -1,-75 19,-112c29,-51 119,-113 190,-130c68,-17 184,-7 243,19c61,26 159,121 188,179c48,100 14,247 -73,310c-27,21 -89,43 -207,77c-180,51 -238,78 -275,128c-49,65 -62,171 -31,260c34,100 148,187 244,187c25,0 76,-9 115,-20l69,-20l41,44c22,24 41,43 42,43c1,-1 13,-72 28,-157zm-969,109c8,-14 -223,-248 -323,-327c-70,-56 -72,-57 -54,-77c33,-37 82,-115 178,-283c52,-92 114,-191 138,-222c124,-160 332,-297 561,-366c79,-25 105,-28 241,-28c84,-1 153,-4 153,-7c0,-16 -122,-58 -185,-64c-166,-16 -432,32 -576,104c-173,87 -284,213 -456,517c-55,99 -109,179 -144,217l-55,60l-41,-27l-41,-27l-7,-173c-9,-218 4,-282 61,-308c14,-7 23,-18 22,-27c-3,-14 -30,-16 -191,-19l-187,-2l0,26c0,16 10,34 25,46c48,38 56,68 67,271c10,199 5,493 -11,561c-6,22 -25,54 -45,75c-20,20 -36,47 -36,59c0,22 1,22 184,22c159,0 185,-2 197,-17c12,-14 12,-17 0,-21c-31,-10 -61,-52 -77,-108c-14,-48 -16,-83 -11,-187c3,-71 8,-132 12,-135c10,-10 93,79 173,183c88,116 127,194 119,235l-6,28l127,7c69,4 136,11 147,15c28,12 33,12 41,-1z"/>
  </g>
  <rect stroke="#000" id="svg_4" height="15" width="259.999994" y="245" x="0" stroke-width="0" fill="#017f66"/>
 </g>
</svg>